<?xml version="1.0" encoding="UTF-8"?>
<svg id="Layer_2" data-name="Layer 2" xmlns="http://www.w3.org/2000/svg" viewBox="0 0 176.35 169.44">
  <defs>
    <style>
      .cls-1 {
        fill: #343a40;
      }

      .cls-2 {
        fill: none;
      }
    </style>
  </defs>
  <g id="Layer_1-2" data-name="Layer 1">
    <g>
      <g>
        <path class="cls-1" d="M45.94,162.77v6.64h-.53s-1.55,.02-1.55,.02H17C7.63,169.43,0,161.81,0,152.44v-62.89l2.06-.03h6.66l.03,2.08v60.83c0,4.55,3.7,8.25,8.25,8.25h28.92v.46s.03,1.63,.03,1.63Z"/>
        <path class="cls-1" d="M43.88,162.77v4.58s-.01,.02-.02,.02H17c-8.25,0-14.94-6.69-14.94-14.94v-60.83s.01-.02,.02-.02H6.66s.02,.01,.02,.02v60.83c0,5.7,4.62,10.31,10.31,10.31h26.86s.02,.01,.02,.02Z"/>
        <path class="cls-1" d="M167.63,93.64l-.02-2.08v-23.37c0-1.89-.91-3.68-2.43-4.78L91.65,9.89c-1.02-.74-2.23-1.14-3.48-1.14s-2.46,.39-3.48,1.14L11.18,63.4c-1.53,1.11-2.44,2.89-2.44,4.78v25.43l-2.08,.02H.02l-.02-2.08v-23.37c0-4.68,2.26-9.11,6.03-11.86L79.54,2.82c2.53-1.84,5.52-2.82,8.63-2.82s6.1,.97,8.63,2.82l73.51,53.51c3.78,2.75,6.03,7.18,6.03,11.86v25.43l-2.08,.02h-6.64Z"/>
        <path class="cls-1" d="M174.29,68.19v23.37s-.01,.02-.02,.02h-4.58s-.02-.01-.02-.02v-23.37c0-2.54-1.22-4.95-3.28-6.45L92.86,8.23c-2.8-2.04-6.58-2.04-9.38,0L9.97,61.74c-2.06,1.49-3.28,3.9-3.28,6.45v23.37s-.01,.02-.02,.02H2.08s-.02-.01-.02-.02v-23.37c0-4.02,1.94-7.83,5.19-10.19L80.75,4.48c4.44-3.23,10.4-3.23,14.84,0l73.52,53.51c3.25,2.36,5.19,6.17,5.19,10.19Z"/>
        <path class="cls-1" d="M132,169.44c-1.23,0-2.43-.51-3.29-1.4-.83-.86-1.26-1.97-1.22-3.14,.04-1.11,.5-2.16,1.29-2.93,.8-.81,1.91-1.27,3.08-1.27h27.48c4.55,0,8.25-3.7,8.25-8.25v-62.89l2.08-.02h6.64l.02,2.08v60.83c0,9.37-7.63,17-17,17h-27.35Z"/>
        <path class="cls-1" d="M169.68,91.58h4.58s.02,.01,.02,.02v60.83c0,8.25-6.69,14.94-14.94,14.94h-27.35c-1.32,0-2.5-1.08-2.45-2.4,.02-.6,.28-1.15,.68-1.55,.42-.42,.99-.68,1.64-.68h27.48c5.7,0,10.31-4.62,10.31-10.31v-60.83s.01-.02,.02-.02Z"/>
      </g>
      <g>
        <path class="cls-1" d="M128.3,81.28c-.23-3.07-2.08-5.19-4.4-5.04-1.1,.07-2.16,.63-3.16,1.68-8.13,8.49-19.07,11.45-29.66,14.32-2.71,.74-5.52,1.5-8.26,2.35-8.84,2.73-18.8,6.3-25.7,12.13-10.73,9.73-15.33,22.08-13.29,35.73,.25,1.65,.64,3.29,1.01,4.88,.93,3.87,1.76,7.38,.61,10.68,0,0,0,.01-.01,.03-.03,.07-.05,.14-.08,.21-.01,.03-.03,.05-.04,.08-.31,.8-.74,1.59-1.32,2.37,0,0,0,0,0,0-.37,.49-.8,.98-1.29,1.46-.19,.18-.35,.38-.5,.59-.62,.89-.91,2.02-.75,3.09,.08,.56,.27,1.08,.56,1.54,.39,.61,.94,1.13,1.64,1.5,.57,.3,1.16,.49,1.75,.54,.21,.02,.43,.03,.64,.01,1.79-.11,3.22-1.36,3.73-3.26,1.13-4.15,2.82-4.6,4.32-4.7,1.65-.1,3.76,.43,5.99,.99l.63,.16c7.08,1.76,13.83,2.46,20.07,2.07,12.65-.8,23.22-5.99,31.44-15.45,17.07-19.65,17.81-44.28,16.06-67.96ZM53.4,148.13c-.05,.02-.1,.03-.14,.03-.13-.21-.32-.83-.53-2.55-.07-.55-.13-1.06-.23-1.54-2.6-12.66,.83-22.96,10.22-30.68-3.64,8.68-6.46,18.83-4.06,30.17,.53,2.51-2.57,3.86-5.26,4.56Zm35.76-10.91c.55-.04,1.11-.05,1.66-.04,.76,.01,1.53,0,2.28-.06,8.27-.52,15.29-4.64,21.25-9.17-5.16,10.19-18.38,16.3-29.39,16.99-3.61,.23-7.15-.1-10.36-.97,4.75-3.77,8.84-6.39,14.55-6.75Zm-24.57,13.77c.52-.04,1.1,.03,1.7,.17,6.41,1.6,12.32,2.21,18.06,1.87h.16c3.43-.23,6.86-.87,10.31-1.7-4.67,2.79-10.44,4.49-16.72,4.89-6.06,.38-12.35-.54-17.89-2.61,1.37-1.43,2.69-2.53,4.37-2.63Zm14.83-22.73c.02,2.5-1.17,3.49-3.9,5.14-2.51,1.52-5.03,3.12-7.48,4.67l-1.15,.73c-1.85-8.08,.08-17.56,5.16-25.08,3.76-5.57,8.83-9.44,14.18-10.88-4.66,8.39-6.89,16.72-6.82,25.42Zm8.73-3.96c.74-16.03,7.78-24.27,26.75-31.4-3.2,9.71-13.38,21.67-26.75,31.4Zm9.75,2.8c10.09-8.51,17.16-16.67,22.35-25.79,.47,4.42-.59,8.74-3.12,12.62-3.8,5.83-11.2,10.82-19.23,13.18Z"/>
        <path class="cls-1" d="M45.99,168.4c-.61,.04-1.23-.11-1.84-.43-.93-.5-1.53-1.31-1.67-2.28-.15-1,.22-2.07,.95-2.8,5.01-4.92,3.74-10.21,2.41-15.81-.37-1.57-.76-3.18-1-4.79-1.98-13.29,2.5-25.33,12.96-34.82,6.74-5.69,16.58-9.21,25.32-11.91,2.73-.84,5.53-1.6,8.24-2.34,10.72-2.9,21.8-5.91,30.12-14.6,.81-.85,1.65-1.31,2.48-1.36,1.73-.11,3.13,1.61,3.31,4.09,1.73,23.46,1.02,47.84-15.81,67.21-8.03,9.24-18.37,14.32-30.73,15.1-6.13,.39-12.78-.3-19.76-2.04l-.63-.16c-2.31-.58-4.49-1.13-6.31-1.02-1.89,.12-4,.86-5.25,5.45-.4,1.46-1.47,2.42-2.81,2.5Zm12.46-14.37c6.01,2.51,12.97,3.66,19.73,3.23,8.59-.54,16.27-3.5,21.56-8.24-5.68,1.53-10.44,2.68-15.29,2.99h-.15c-5.64,.34-11.44-.26-17.75-1.83-.71-.18-1.39-.25-2.02-.21-2.48,.16-4.16,1.96-6.08,4.06Zm6.79-43.78c-12.09,8.18-16.71,19.61-13.74,34.03,.09,.45,.15,.96,.22,1.49,.29,2.37,.59,3.48,1.56,3.42h0c.12,0,.25-.03,.39-.07,3.13-.81,6.71-2.46,6.01-5.77-2.57-12.14,.96-23.07,5.57-33.11Zm7.23,34.14c3.79,1.32,8.1,1.86,12.57,1.58h0c13.19-.83,28.06-8.91,31.7-21.22-6.97,5.73-14.66,10.78-23.69,11.35-.73,.05-1.47,.06-2.2,.05-.59,0-1.17,0-1.74,.04-6.82,.43-11.46,3.97-16.64,8.19Zm15.81-43.02c-6.44,.92-12.59,5.14-17.07,11.76-5.58,8.26-7.44,18.61-4.95,27.28,.78-.5,1.56-.99,2.34-1.48,2.44-1.55,4.96-3.15,7.45-4.66,2.75-1.67,4.42-2.9,4.4-6.03-.08-9.18,2.48-17.99,7.82-26.88Zm32.47-3.14c-5.79,11.12-14.01,20.55-26.9,30.85,9.81-1.66,19.45-7.41,24.14-14.6,3.24-4.98,4.18-10.55,2.76-16.25Zm-4.3-7c-21.51,7.7-29.15,16.79-29.39,35.1,15.32-10.71,26.84-24.49,29.39-35.1Z"/>
        <path class="cls-1" d="M46,168.62c-.65,.04-1.31-.11-1.96-.46-1-.53-1.63-1.4-1.78-2.45-.15-1.07,.24-2.22,1.02-2.98,4.92-4.83,3.67-10.06,2.35-15.6-.37-1.57-.76-3.19-1-4.81-2-13.37,2.51-25.47,13.03-35.01,6.77-5.72,16.64-9.26,25.4-11.96,2.73-.84,5.53-1.6,8.25-2.34,11.18-3.03,21.74-5.89,30.02-14.54,.85-.89,1.74-1.37,2.62-1.43,1.86-.12,3.35,1.69,3.54,4.29,1.74,23.51,1.02,47.94-15.86,67.37-8.07,9.29-18.46,14.4-30.88,15.18-6.16,.39-12.83-.3-19.82-2.05l-.63-.16c-2.29-.58-4.46-1.12-6.24-1.01s-3.84,.83-5.05,5.29c-.42,1.55-1.57,2.57-3.01,2.66Zm12.82-14.67c5.91,2.42,12.72,3.51,19.34,3.1,8.15-.51,15.48-3.22,20.7-7.56-5.29,1.41-9.8,2.46-14.41,2.75h-.15c-5.66,.35-11.48-.26-17.81-1.84-.69-.17-1.35-.24-1.95-.2-2.3,.14-3.92,1.79-5.72,3.76Zm5.88-43.06c-11.52,8.09-15.89,19.3-13,33.36,.09,.46,.16,.97,.22,1.51,.27,2.23,.54,3.28,1.33,3.23h0c.1,0,.22-.03,.35-.06,3.03-.78,6.51-2.38,5.85-5.51-2.52-11.91,.79-22.65,5.25-32.52Zm8.21,33.43c3.67,1.22,7.82,1.71,12.11,1.44h0c14.28-.9,27.51-9.74,31.24-20.33-6.84,5.54-14.38,10.35-23.21,10.9-.73,.05-1.48,.06-2.22,.05-.58,0-1.16,0-1.72,.04-6.61,.42-11.18,3.81-16.21,7.89Zm14.94-42.65c-6.21,1.04-12.12,5.18-16.46,11.6-5.48,8.12-7.35,18.27-5,26.82,.71-.45,1.41-.9,2.12-1.34,2.43-1.54,4.94-3.14,7.43-4.65,2.69-1.63,4.32-2.83,4.29-5.84-.08-9.08,2.42-17.8,7.62-26.59Zm32.83-2.81c-5.69,10.73-13.68,19.91-26.01,29.86,9.46-1.83,18.62-7.42,23.14-14.35,3.15-4.83,4.11-10.04,2.87-15.51Zm-4.54-7.27c-20.94,7.57-28.49,16.53-28.85,34.33,14.91-10.51,26.14-23.91,28.85-34.33Z"/>
        <path class="cls-1" d="M58.34,108.07c6.34-5.35,15.54-8.81,25.01-11.74,13.57-4.19,28.11-6.08,38.71-17.15,2.42-2.52,4.21-.32,4.4,2.23,1.76,23.84,.9,47.61-15.61,66.62-12.98,14.94-30.92,17.49-49.68,12.81-5.93-1.48-11.01-3.07-13.16,4.85-.44,1.61-1.89,2.42-3.49,1.56-1.68-.89-1.52-2.81-.53-3.79,6.81-6.69,2.72-14.06,1.64-21.3-1.91-12.76,2.26-24.63,12.7-34.1Zm31.48-7.66c-16.86,.97-29.94,23.39-24.02,41.26,3.62-2.28,7.11-4.54,10.68-6.7,2.59-1.57,4.82-3.02,4.79-6.72-.08-10.04,3.12-19.23,8.56-27.84Zm-3.57,27.47c16.96-11.51,29.38-26.7,31.28-37.88-23.35,8.08-31.45,17.7-31.28,37.88Zm31.82-5.3c-8.55,7.26-16.93,12.93-27.21,12.76-8.58-.14-13.99,4.4-20,9.3,17.92,7.33,44.18-4.52,47.2-22.07Zm-50.92-14.51c-14.35,8.57-19.59,21.09-16.45,36.37,.44,2.14,.2,6.23,3.16,5.47,2.77-.71,7.49-2.52,6.6-6.72-2.54-12.01,.79-22.84,6.69-35.12Zm23.91,22.19c16.27-1.39,36.45-15.04,29.89-34.2-6.89,14.07-17.06,24.26-29.89,34.2Zm11.38,17.19c-7.15,1.95-12.56,3.42-18.19,3.76-5.95,.35-11.74-.38-17.5-1.82-4.58-1.14-6.9,1.97-9.66,4.92,15.42,6.99,35.54,4.3,45.35-6.86Z"/>
      </g>
      <path class="cls-1" d="M45.33,158.38c.41,.85-.23,2.11-1.32,2.37h-2.95c2.89-.09,3.95-1.68,4.28-2.37Z"/>
      <path class="cls-2" d="M45.17,158.7s.03-.06,.04-.08c.04-.1,.07-.17,.08-.21,0-.02,.01-.03,.01-.03"/>
    </g>
  </g>
</svg>